<?xml version="1.0" encoding="utf-8"?>
<!-- Generator: Adobe Illustrator 16.0.0, SVG Export Plug-In . SVG Version: 6.00 Build 0)  -->
<!DOCTYPE svg PUBLIC "-//W3C//DTD SVG 1.1//EN" "http://www.w3.org/Graphics/SVG/1.1/DTD/svg11.dtd">
<svg version="1.1" id="Layer_1" xmlns="http://www.w3.org/2000/svg" xmlns:xlink="http://www.w3.org/1999/xlink" x="0px" y="0px"
	 width="162.685px" height="21.637px" viewBox="0 0 162.685 21.637" enable-background="new 0 0 162.685 21.637"
	 xml:space="preserve">
<g>
	<g>
		<rect fill="#E73137" width="10.223" height="20.818"/>
	</g>
	<g>
		<rect x="32.899" fill="#E73137" width="10.223" height="20.818"/>
	</g>
	<g>
		<path fill="#E73137" d="M20.143,4.328l1.461-2.973l1.45,2.863c0.181,0.303,0.326,0.278,0.616,0.133l1.245-0.616l-0.81,3.999
			c-0.169,0.785,0.278,1.016,0.761,0.482l1.776-1.896l0.47,1.075c0.158,0.326,0.399,0.277,0.713,0.217l1.836-0.387l-0.616,2.32
			l-0.013,0.048c-0.072,0.303-0.217,0.556,0.122,0.701l0.652,0.326l-3.782,3.202c-0.386,0.398-0.253,0.52-0.108,0.967l0.35,1.074
			l-3.527-0.641c-0.435-0.109-0.737-0.109-0.749,0.242l0.145,4.047h-1.062l0.146-4.035c0-0.398-0.303-0.387-1.016-0.241
			l-3.262,0.628l0.423-1.074c0.144-0.412,0.181-0.689-0.146-0.967l-3.866-3.154l0.713-0.435c0.206-0.157,0.217-0.326,0.109-0.677
			l-0.725-2.355l1.861,0.398c0.519,0.121,0.664,0,0.796-0.29l0.52-1.063l1.836,2.079c0.327,0.386,0.786,0.132,0.641-0.424
			l-0.882-4.337l1.365,0.785c0.217,0.133,0.447,0.17,0.58-0.084"/>
	</g>
</g>
<g>
	<path d="M60.812,7.177c0.026,0.488,0.137,0.885,0.333,1.189c0.373,0.57,1.029,0.855,1.97,0.855c0.421,0,0.805-0.062,1.151-0.188
		c0.67-0.242,1.005-0.676,1.005-1.301c0-0.469-0.142-0.803-0.426-1.002c-0.288-0.195-0.738-0.365-1.351-0.51l-1.129-0.264
		c-0.738-0.172-1.26-0.361-1.566-0.568c-0.53-0.359-0.795-0.896-0.795-1.611c0-0.773,0.26-1.408,0.781-1.904
		c0.521-0.496,1.258-0.744,2.212-0.744c0.878,0,1.624,0.218,2.238,0.653s0.921,1.132,0.921,2.089H65.06
		c-0.056-0.461-0.176-0.814-0.359-1.061c-0.341-0.449-0.919-0.674-1.736-0.674c-0.659,0-1.133,0.145-1.421,0.434
		C61.254,2.86,61.11,3.196,61.11,3.579c0,0.422,0.17,0.73,0.511,0.926c0.224,0.125,0.729,0.281,1.516,0.469l1.169,0.275
		c0.564,0.133,0.999,0.314,1.306,0.545c0.53,0.402,0.795,0.986,0.795,1.752c0,0.953-0.338,1.635-1.014,2.045
		s-1.462,0.615-2.357,0.615c-1.044,0-1.861-0.273-2.451-0.82c-0.591-0.543-0.88-1.279-0.869-2.209H60.812z"/>
	<path d="M71.588,6.156c0.242-0.031,0.404-0.132,0.486-0.304c0.047-0.094,0.07-0.229,0.07-0.406c0-0.361-0.128-0.623-0.383-0.785
		c-0.255-0.163-0.621-0.244-1.097-0.244c-0.55,0-0.939,0.149-1.169,0.447c-0.129,0.165-0.212,0.411-0.251,0.736H68.26
		c0.02-0.775,0.27-1.315,0.752-1.619c0.482-0.304,1.041-0.456,1.677-0.456c0.737,0,1.336,0.141,1.797,0.422
		c0.457,0.281,0.685,0.719,0.685,1.312v3.616c0,0.109,0.022,0.197,0.067,0.263c0.045,0.066,0.14,0.1,0.284,0.1
		c0.047,0,0.1-0.003,0.158-0.009s0.121-0.015,0.188-0.026v0.779c-0.164,0.047-0.289,0.076-0.375,0.088s-0.203,0.018-0.352,0.018
		c-0.363,0-0.627-0.129-0.791-0.387c-0.086-0.137-0.146-0.33-0.182-0.58c-0.215,0.281-0.523,0.525-0.926,0.732
		s-0.846,0.311-1.33,0.311c-0.582,0-1.058-0.177-1.427-0.53S67.932,8.84,67.932,8.31c0-0.582,0.182-1.032,0.545-1.352
		s0.84-0.517,1.43-0.591L71.588,6.156z M69.368,9.005c0.223,0.176,0.486,0.263,0.791,0.263c0.371,0,0.73-0.086,1.078-0.257
		c0.586-0.285,0.879-0.751,0.879-1.398V6.765c-0.129,0.083-0.294,0.151-0.497,0.206c-0.203,0.055-0.401,0.094-0.597,0.117
		L70.385,7.17c-0.382,0.051-0.669,0.13-0.862,0.24c-0.326,0.183-0.489,0.476-0.489,0.877C69.034,8.59,69.145,8.83,69.368,9.005z"/>
	<path d="M75.211,3.679h1.002v0.891c0.297-0.367,0.611-0.631,0.943-0.791s0.701-0.24,1.107-0.24c0.891,0,1.492,0.311,1.805,0.932
		c0.172,0.34,0.258,0.826,0.258,1.459v4.025h-1.072V5.999c0-0.383-0.057-0.691-0.17-0.926c-0.188-0.391-0.527-0.586-1.02-0.586
		c-0.25,0-0.455,0.025-0.615,0.076c-0.289,0.086-0.543,0.258-0.762,0.516c-0.176,0.207-0.29,0.421-0.343,0.642
		s-0.079,0.536-0.079,0.946v3.287h-1.055V3.679z"/>
	<path d="M82.408,1.927h1.066v1.752h1.002V4.54h-1.002v4.096c0,0.219,0.074,0.365,0.223,0.439c0.082,0.043,0.219,0.064,0.41,0.064
		c0.051,0,0.105-0.001,0.164-0.004s0.127-0.009,0.205-0.02v0.838c-0.121,0.035-0.247,0.061-0.378,0.076s-0.272,0.023-0.425,0.023
		c-0.492,0-0.826-0.126-1.002-0.378s-0.264-0.579-0.264-0.981V4.54h-0.85V3.679h0.85V1.927z"/>
	<path d="M89.719,3.852c0.416,0.209,0.732,0.479,0.949,0.812c0.21,0.316,0.35,0.686,0.419,1.107c0.062,0.289,0.093,0.75,0.093,1.383
		h-4.564c0.02,0.639,0.168,1.151,0.448,1.537c0.279,0.386,0.711,0.579,1.296,0.579c0.546,0,0.982-0.183,1.308-0.547
		c0.182-0.212,0.311-0.457,0.387-0.736h1.037c-0.027,0.23-0.118,0.487-0.272,0.771s-0.327,0.515-0.517,0.694
		c-0.318,0.312-0.711,0.523-1.18,0.633c-0.252,0.062-0.537,0.094-0.855,0.094c-0.776,0-1.434-0.284-1.974-0.853
		c-0.54-0.568-0.81-1.364-0.81-2.388c0-1.008,0.271-1.826,0.815-2.455c0.543-0.629,1.254-0.943,2.131-0.943
		C88.875,3.538,89.304,3.643,89.719,3.852z M90.097,6.315C90.054,5.858,89.955,5.493,89.8,5.22
		c-0.287-0.508-0.765-0.762-1.435-0.762c-0.48,0-0.883,0.175-1.208,0.524s-0.498,0.794-0.517,1.333H90.097z M89.675,1.153
		L88.11,2.847h-0.809l1.072-1.693H89.675z"/>
	<path d="M66.138,12.974c0.594,0.574,0.925,1.227,0.99,1.957h-1.137c-0.126-0.555-0.379-0.994-0.757-1.318s-0.908-0.486-1.591-0.486
		c-0.833,0-1.505,0.298-2.017,0.895c-0.512,0.596-0.768,1.51-0.768,2.741c0,1.009,0.231,1.827,0.693,2.454
		c0.462,0.628,1.152,0.941,2.069,0.941c0.844,0,1.487-0.33,1.928-0.99c0.234-0.348,0.409-0.805,0.524-1.371h1.137
		c-0.101,0.906-0.433,1.666-0.996,2.279c-0.676,0.738-1.587,1.107-2.734,1.107c-0.989,0-1.819-0.303-2.491-0.909
		c-0.884-0.801-1.326-2.039-1.326-3.711c0-1.271,0.332-2.312,0.996-3.125c0.718-0.883,1.708-1.325,2.971-1.325
		C64.707,12.112,65.543,12.399,66.138,12.974z"/>
	<path d="M72.25,17.156c0.242-0.031,0.404-0.132,0.486-0.304c0.047-0.094,0.07-0.229,0.07-0.406c0-0.361-0.128-0.623-0.383-0.785
		c-0.255-0.163-0.621-0.244-1.097-0.244c-0.55,0-0.939,0.149-1.169,0.447c-0.129,0.165-0.212,0.411-0.251,0.736h-0.984
		c0.02-0.775,0.27-1.315,0.752-1.619c0.482-0.304,1.041-0.456,1.677-0.456c0.737,0,1.336,0.141,1.797,0.422
		c0.457,0.281,0.685,0.719,0.685,1.312v3.616c0,0.109,0.022,0.197,0.067,0.263c0.045,0.066,0.14,0.1,0.284,0.1
		c0.047,0,0.1-0.003,0.158-0.009s0.121-0.015,0.188-0.026v0.779c-0.164,0.047-0.289,0.076-0.375,0.088s-0.203,0.018-0.352,0.018
		c-0.363,0-0.627-0.129-0.791-0.387c-0.086-0.137-0.146-0.33-0.182-0.58c-0.215,0.281-0.523,0.525-0.926,0.732
		s-0.846,0.311-1.33,0.311c-0.582,0-1.058-0.177-1.427-0.53s-0.554-0.795-0.554-1.325c0-0.582,0.182-1.032,0.545-1.352
		s0.84-0.517,1.43-0.591L72.25,17.156z M70.03,20.005c0.223,0.176,0.486,0.263,0.791,0.263c0.371,0,0.73-0.086,1.078-0.257
		c0.586-0.285,0.879-0.751,0.879-1.398v-0.848c-0.129,0.083-0.294,0.151-0.497,0.206c-0.203,0.055-0.401,0.094-0.597,0.117
		l-0.637,0.082c-0.382,0.051-0.669,0.13-0.862,0.24c-0.326,0.183-0.489,0.476-0.489,0.877C69.696,19.59,69.807,19.83,70.03,20.005z"
		/>
	<path d="M75.873,14.679h1.002v0.891c0.297-0.367,0.611-0.631,0.943-0.791s0.701-0.24,1.107-0.24c0.891,0,1.492,0.311,1.805,0.932
		c0.172,0.34,0.258,0.826,0.258,1.459v4.025h-1.072v-3.955c0-0.383-0.057-0.691-0.17-0.926c-0.188-0.391-0.527-0.586-1.02-0.586
		c-0.25,0-0.455,0.025-0.615,0.076c-0.289,0.086-0.543,0.258-0.762,0.516c-0.176,0.207-0.29,0.421-0.343,0.642
		s-0.079,0.536-0.079,0.946v3.287h-1.055V14.679z"/>
	<path d="M86.222,17.156c0.242-0.031,0.404-0.132,0.486-0.304c0.047-0.094,0.07-0.229,0.07-0.406c0-0.361-0.128-0.623-0.383-0.785
		c-0.255-0.163-0.621-0.244-1.097-0.244c-0.55,0-0.939,0.149-1.169,0.447c-0.129,0.165-0.212,0.411-0.251,0.736h-0.984
		c0.02-0.775,0.27-1.315,0.752-1.619c0.482-0.304,1.041-0.456,1.677-0.456c0.737,0,1.336,0.141,1.797,0.422
		c0.457,0.281,0.685,0.719,0.685,1.312v3.616c0,0.109,0.022,0.197,0.067,0.263c0.045,0.066,0.14,0.1,0.284,0.1
		c0.047,0,0.1-0.003,0.158-0.009s0.121-0.015,0.188-0.026v0.779c-0.164,0.047-0.289,0.076-0.375,0.088s-0.203,0.018-0.352,0.018
		c-0.363,0-0.627-0.129-0.791-0.387c-0.086-0.137-0.146-0.33-0.182-0.58c-0.215,0.281-0.523,0.525-0.926,0.732
		s-0.846,0.311-1.33,0.311c-0.582,0-1.058-0.177-1.427-0.53s-0.554-0.795-0.554-1.325c0-0.582,0.182-1.032,0.545-1.352
		s0.84-0.517,1.43-0.591L86.222,17.156z M84.001,20.005c0.223,0.176,0.486,0.263,0.791,0.263c0.371,0,0.73-0.086,1.078-0.257
		c0.586-0.285,0.879-0.751,0.879-1.398v-0.848c-0.129,0.083-0.294,0.151-0.497,0.206c-0.203,0.055-0.401,0.094-0.597,0.117
		l-0.637,0.082c-0.382,0.051-0.669,0.13-0.862,0.24c-0.326,0.183-0.489,0.476-0.489,0.877C83.667,19.59,83.779,19.83,84.001,20.005z
		"/>
	<path d="M93.292,14.872c0.187,0.117,0.399,0.322,0.636,0.615v-3.17h1.014v8.637h-0.949v-0.873c-0.245,0.387-0.535,0.666-0.87,0.838
		c-0.335,0.172-0.718,0.258-1.15,0.258c-0.697,0-1.3-0.294-1.81-0.882s-0.765-1.37-0.765-2.347c0-0.914,0.232-1.706,0.697-2.376
		c0.465-0.67,1.129-1.005,1.994-1.005C92.569,14.567,92.97,14.669,93.292,14.872z M90.938,19.577c0.284,0.453,0.738,0.68,1.364,0.68
		c0.486,0,0.885-0.21,1.198-0.63s0.469-1.022,0.469-1.808c0-0.793-0.161-1.38-0.484-1.761s-0.721-0.571-1.195-0.571
		c-0.528,0-0.957,0.203-1.285,0.609c-0.329,0.406-0.493,1.004-0.493,1.793C90.513,18.562,90.654,19.124,90.938,19.577z"/>
	<path d="M100.194,17.156c0.242-0.031,0.404-0.132,0.486-0.304c0.047-0.094,0.07-0.229,0.07-0.406c0-0.361-0.128-0.623-0.383-0.785
		c-0.255-0.163-0.621-0.244-1.097-0.244c-0.55,0-0.939,0.149-1.169,0.447c-0.129,0.165-0.212,0.411-0.251,0.736h-0.984
		c0.02-0.775,0.27-1.315,0.752-1.619c0.482-0.304,1.041-0.456,1.677-0.456c0.737,0,1.336,0.141,1.797,0.422
		c0.457,0.281,0.685,0.719,0.685,1.312v3.616c0,0.109,0.022,0.197,0.067,0.263c0.045,0.066,0.14,0.1,0.284,0.1
		c0.047,0,0.1-0.003,0.158-0.009s0.121-0.015,0.188-0.026v0.779c-0.164,0.047-0.289,0.076-0.375,0.088s-0.203,0.018-0.352,0.018
		c-0.363,0-0.627-0.129-0.791-0.387c-0.086-0.137-0.146-0.33-0.182-0.58c-0.215,0.281-0.523,0.525-0.926,0.732
		s-0.846,0.311-1.33,0.311c-0.582,0-1.058-0.177-1.427-0.53s-0.554-0.795-0.554-1.325c0-0.582,0.182-1.032,0.545-1.352
		s0.84-0.517,1.43-0.591L100.194,17.156z M97.973,20.005c0.223,0.176,0.486,0.263,0.791,0.263c0.371,0,0.73-0.086,1.078-0.257
		c0.586-0.285,0.879-0.751,0.879-1.398v-0.848c-0.129,0.083-0.294,0.151-0.497,0.206c-0.203,0.055-0.401,0.094-0.597,0.117
		L98.99,18.17c-0.382,0.051-0.669,0.13-0.862,0.24c-0.326,0.183-0.489,0.476-0.489,0.877C97.639,19.59,97.75,19.83,97.973,20.005z"
		/>
</g>
<g>
	<path d="M120.291,1.801h1.178v3.557h4.424V1.801h1.178v8.607h-1.178V6.383h-4.424v4.025h-1.178V1.801z"/>
	<path d="M132.975,4.306c0.416,0.209,0.732,0.479,0.949,0.812c0.21,0.316,0.35,0.686,0.419,1.107
		c0.062,0.289,0.093,0.75,0.093,1.383h-4.564c0.02,0.639,0.168,1.151,0.448,1.537c0.279,0.386,0.711,0.579,1.296,0.579
		c0.546,0,0.982-0.183,1.308-0.547c0.182-0.212,0.311-0.457,0.387-0.736h1.037c-0.027,0.23-0.118,0.487-0.272,0.771
		s-0.327,0.515-0.517,0.694c-0.318,0.312-0.711,0.523-1.18,0.633c-0.252,0.062-0.537,0.094-0.855,0.094
		c-0.776,0-1.434-0.284-1.974-0.853c-0.54-0.568-0.81-1.364-0.81-2.388c0-1.008,0.271-1.826,0.815-2.455
		c0.543-0.629,1.254-0.943,2.131-0.943C132.131,3.993,132.56,4.097,132.975,4.306z M133.353,6.77
		c-0.042-0.457-0.142-0.822-0.296-1.096c-0.287-0.508-0.765-0.762-1.435-0.762c-0.48,0-0.883,0.175-1.208,0.524
		s-0.498,0.794-0.517,1.333H133.353z"/>
	<path d="M139.448,6.611c0.242-0.031,0.404-0.132,0.486-0.304c0.047-0.094,0.07-0.229,0.07-0.406c0-0.361-0.128-0.623-0.383-0.785
		c-0.255-0.163-0.621-0.244-1.097-0.244c-0.55,0-0.939,0.149-1.169,0.447c-0.129,0.165-0.212,0.411-0.251,0.736h-0.984
		c0.02-0.775,0.27-1.315,0.752-1.619c0.482-0.304,1.041-0.456,1.677-0.456c0.737,0,1.336,0.141,1.797,0.422
		c0.457,0.281,0.685,0.719,0.685,1.312v3.616c0,0.109,0.022,0.197,0.067,0.263c0.045,0.066,0.14,0.1,0.284,0.1
		c0.047,0,0.1-0.003,0.158-0.009s0.121-0.015,0.188-0.026v0.779c-0.164,0.047-0.289,0.076-0.375,0.088s-0.203,0.018-0.352,0.018
		c-0.363,0-0.627-0.129-0.791-0.387c-0.086-0.137-0.146-0.33-0.182-0.58c-0.215,0.281-0.523,0.525-0.926,0.732
		s-0.846,0.311-1.33,0.311c-0.582,0-1.058-0.177-1.427-0.53s-0.554-0.795-0.554-1.325c0-0.582,0.182-1.032,0.545-1.352
		s0.84-0.517,1.43-0.591L139.448,6.611z M137.228,9.46c0.223,0.176,0.486,0.263,0.791,0.263c0.371,0,0.73-0.086,1.078-0.257
		c0.586-0.285,0.879-0.751,0.879-1.398V7.219c-0.129,0.083-0.294,0.151-0.497,0.206c-0.203,0.055-0.401,0.094-0.597,0.117
		l-0.637,0.082c-0.382,0.051-0.669,0.13-0.862,0.24c-0.326,0.183-0.489,0.476-0.489,0.877C136.894,9.045,137.005,9.285,137.228,9.46
		z"/>
	<path d="M143.1,1.801h1.055v8.607H143.1V1.801z"/>
	<path d="M146.26,2.381h1.066v1.752h1.002v0.861h-1.002V9.09c0,0.219,0.074,0.365,0.223,0.439c0.082,0.043,0.219,0.064,0.41,0.064
		c0.051,0,0.105-0.001,0.164-0.004s0.127-0.009,0.205-0.02v0.838c-0.121,0.035-0.247,0.061-0.378,0.076s-0.272,0.023-0.425,0.023
		c-0.492,0-0.826-0.126-1.002-0.378s-0.264-0.579-0.264-0.981V4.995h-0.85V4.133h0.85V2.381z"/>
	<path d="M149.695,1.772h1.055v3.211c0.25-0.316,0.475-0.539,0.674-0.668c0.34-0.223,0.764-0.334,1.271-0.334
		c0.91,0,1.527,0.318,1.852,0.955c0.176,0.348,0.264,0.83,0.264,1.447v4.025h-1.084V6.454c0-0.461-0.059-0.799-0.176-1.014
		c-0.191-0.344-0.551-0.516-1.078-0.516c-0.438,0-0.834,0.15-1.189,0.451s-0.533,0.869-0.533,1.705v3.328h-1.055V1.772z"/>
	<path d="M126.35,13.428c0.594,0.574,0.925,1.227,0.99,1.957h-1.137c-0.126-0.555-0.379-0.994-0.757-1.318s-0.908-0.486-1.591-0.486
		c-0.833,0-1.505,0.298-2.017,0.895c-0.512,0.596-0.768,1.51-0.768,2.741c0,1.009,0.231,1.827,0.693,2.454
		c0.462,0.628,1.152,0.941,2.069,0.941c0.844,0,1.487-0.33,1.928-0.99c0.234-0.348,0.409-0.805,0.524-1.371h1.137
		c-0.101,0.906-0.433,1.666-0.996,2.279c-0.676,0.738-1.587,1.107-2.734,1.107c-0.989,0-1.819-0.303-2.491-0.909
		c-0.884-0.801-1.326-2.039-1.326-3.711c0-1.271,0.332-2.312,0.996-3.125c0.718-0.883,1.708-1.325,2.971-1.325
		C124.919,12.567,125.755,12.854,126.35,13.428z"/>
	<path d="M132.462,17.611c0.242-0.031,0.404-0.132,0.486-0.304c0.047-0.094,0.07-0.229,0.07-0.406c0-0.361-0.128-0.623-0.383-0.785
		c-0.255-0.163-0.621-0.244-1.097-0.244c-0.55,0-0.939,0.149-1.169,0.447c-0.129,0.165-0.212,0.411-0.251,0.736h-0.984
		c0.02-0.775,0.27-1.315,0.752-1.619c0.482-0.304,1.041-0.456,1.677-0.456c0.737,0,1.336,0.141,1.797,0.422
		c0.457,0.281,0.685,0.719,0.685,1.312v3.616c0,0.109,0.022,0.197,0.067,0.263c0.045,0.066,0.14,0.1,0.284,0.1
		c0.047,0,0.1-0.003,0.158-0.009s0.121-0.015,0.188-0.026v0.779c-0.164,0.047-0.289,0.076-0.375,0.088s-0.203,0.018-0.352,0.018
		c-0.363,0-0.627-0.129-0.791-0.387c-0.086-0.137-0.146-0.33-0.182-0.58c-0.215,0.281-0.523,0.525-0.926,0.732
		s-0.846,0.311-1.33,0.311c-0.582,0-1.058-0.177-1.427-0.53s-0.554-0.795-0.554-1.325c0-0.582,0.182-1.032,0.545-1.352
		s0.84-0.517,1.43-0.591L132.462,17.611z M130.242,20.46c0.223,0.176,0.486,0.263,0.791,0.263c0.371,0,0.73-0.086,1.078-0.257
		c0.586-0.285,0.879-0.751,0.879-1.398v-0.848c-0.129,0.083-0.294,0.151-0.497,0.206c-0.203,0.055-0.401,0.094-0.597,0.117
		l-0.637,0.082c-0.382,0.051-0.669,0.13-0.862,0.24c-0.326,0.183-0.489,0.476-0.489,0.877
		C129.908,20.045,130.019,20.285,130.242,20.46z"/>
	<path d="M136.085,15.133h1.002v0.891c0.297-0.367,0.611-0.631,0.943-0.791s0.701-0.24,1.107-0.24c0.891,0,1.492,0.311,1.805,0.932
		c0.172,0.34,0.258,0.826,0.258,1.459v4.025h-1.072v-3.955c0-0.383-0.057-0.691-0.17-0.926c-0.188-0.391-0.527-0.586-1.02-0.586
		c-0.25,0-0.455,0.025-0.615,0.076c-0.289,0.086-0.543,0.258-0.762,0.516c-0.176,0.207-0.29,0.421-0.343,0.642
		s-0.079,0.536-0.079,0.946v3.287h-1.055V15.133z"/>
	<path d="M146.434,17.611c0.242-0.031,0.404-0.132,0.486-0.304c0.047-0.094,0.07-0.229,0.07-0.406c0-0.361-0.128-0.623-0.383-0.785
		c-0.255-0.163-0.621-0.244-1.097-0.244c-0.55,0-0.939,0.149-1.169,0.447c-0.129,0.165-0.212,0.411-0.251,0.736h-0.984
		c0.02-0.775,0.27-1.315,0.752-1.619c0.482-0.304,1.041-0.456,1.677-0.456c0.737,0,1.336,0.141,1.797,0.422
		c0.457,0.281,0.685,0.719,0.685,1.312v3.616c0,0.109,0.022,0.197,0.067,0.263c0.045,0.066,0.14,0.1,0.284,0.1
		c0.047,0,0.1-0.003,0.158-0.009s0.121-0.015,0.188-0.026v0.779c-0.164,0.047-0.289,0.076-0.375,0.088s-0.203,0.018-0.352,0.018
		c-0.363,0-0.627-0.129-0.791-0.387c-0.086-0.137-0.146-0.33-0.182-0.58c-0.215,0.281-0.523,0.525-0.926,0.732
		s-0.846,0.311-1.33,0.311c-0.582,0-1.058-0.177-1.427-0.53s-0.554-0.795-0.554-1.325c0-0.582,0.182-1.032,0.545-1.352
		s0.84-0.517,1.43-0.591L146.434,17.611z M144.213,20.46c0.223,0.176,0.486,0.263,0.791,0.263c0.371,0,0.73-0.086,1.078-0.257
		c0.586-0.285,0.879-0.751,0.879-1.398v-0.848c-0.129,0.083-0.294,0.151-0.497,0.206c-0.203,0.055-0.401,0.094-0.597,0.117
		l-0.637,0.082c-0.382,0.051-0.669,0.13-0.862,0.24c-0.326,0.183-0.489,0.476-0.489,0.877
		C143.879,20.045,143.991,20.285,144.213,20.46z"/>
	<path d="M153.504,15.327c0.187,0.117,0.399,0.322,0.636,0.615v-3.17h1.014v8.637h-0.949v-0.873
		c-0.245,0.387-0.535,0.666-0.87,0.838c-0.335,0.172-0.718,0.258-1.15,0.258c-0.697,0-1.3-0.294-1.81-0.882s-0.765-1.37-0.765-2.347
		c0-0.914,0.232-1.706,0.697-2.376c0.465-0.67,1.129-1.005,1.994-1.005C152.781,15.022,153.182,15.124,153.504,15.327z
		 M151.15,20.032c0.284,0.453,0.738,0.68,1.364,0.68c0.486,0,0.885-0.21,1.198-0.63s0.469-1.022,0.469-1.808
		c0-0.793-0.161-1.38-0.484-1.761s-0.721-0.571-1.195-0.571c-0.528,0-0.957,0.203-1.285,0.609c-0.329,0.406-0.493,1.004-0.493,1.793
		C150.725,19.016,150.866,19.579,151.15,20.032z"/>
	<path d="M160.406,17.611c0.242-0.031,0.404-0.132,0.486-0.304c0.047-0.094,0.07-0.229,0.07-0.406c0-0.361-0.128-0.623-0.383-0.785
		c-0.255-0.163-0.621-0.244-1.097-0.244c-0.55,0-0.939,0.149-1.169,0.447c-0.129,0.165-0.212,0.411-0.251,0.736h-0.984
		c0.02-0.775,0.27-1.315,0.752-1.619c0.482-0.304,1.041-0.456,1.677-0.456c0.737,0,1.336,0.141,1.797,0.422
		c0.457,0.281,0.685,0.719,0.685,1.312v3.616c0,0.109,0.022,0.197,0.067,0.263c0.045,0.066,0.14,0.1,0.284,0.1
		c0.047,0,0.1-0.003,0.158-0.009s0.121-0.015,0.188-0.026v0.779c-0.164,0.047-0.289,0.076-0.375,0.088s-0.203,0.018-0.352,0.018
		c-0.363,0-0.627-0.129-0.791-0.387c-0.086-0.137-0.146-0.33-0.182-0.58c-0.215,0.281-0.523,0.525-0.926,0.732
		s-0.846,0.311-1.33,0.311c-0.582,0-1.058-0.177-1.427-0.53s-0.554-0.795-0.554-1.325c0-0.582,0.182-1.032,0.545-1.352
		s0.84-0.517,1.43-0.591L160.406,17.611z M158.185,20.46c0.223,0.176,0.486,0.263,0.791,0.263c0.371,0,0.73-0.086,1.078-0.257
		c0.586-0.285,0.879-0.751,0.879-1.398v-0.848c-0.129,0.083-0.294,0.151-0.497,0.206c-0.203,0.055-0.401,0.094-0.597,0.117
		l-0.637,0.082c-0.382,0.051-0.669,0.13-0.862,0.24c-0.326,0.183-0.489,0.476-0.489,0.877
		C157.851,20.045,157.962,20.285,158.185,20.46z"/>
</g>
</svg>
