<?xml version="1.0" encoding="utf-8"?>
<!-- Generator: Adobe Illustrator 22.0.0, SVG Export Plug-In . SVG Version: 6.00 Build 0)  -->
<svg version="1.1" id="Layer_1" xmlns="http://www.w3.org/2000/svg" xmlns:xlink="http://www.w3.org/1999/xlink" x="0px" y="0px"
	 viewBox="0 0 258.1 45.3" style="enable-background:new 0 0 258.1 45.3;" xml:space="preserve">
<style type="text/css">
	.st0{fill:#E4186A;}
	.st1{fill:#42AD49;}
	.st2{fill:#F18830;}
	.st3{fill:#2666BC;}
</style>
<g>
	<g>
		<path class="st0" d="M11,21.2c0.8,0.8,0.8,2.1,0,3l-3.7,3.7c-0.8,0.8-2.1,0.8-3,0l-3.7-3.7c-0.8-0.8-0.8-2.1,0-3l3.7-3.7
			c0.8-0.8,2.1-0.8,3,0L11,21.2z"/>
		<path class="st1" d="M25.7,15.8c-0.8-0.8-0.8-2.1,0-3l3.7-3.7c0.8-0.8,2.1-0.8,3,0l8.3,8.3l3.7,3.7l0,0c0.8,0.8,0.8,2.1,0,3
			L32.3,36.2c-0.8,0.8-2.1,0.8-3,0l-3.7-3.7c-0.8-0.8-0.8-2.1,0-2.9l5.4-5.4c0.8-0.8,0.8-2.2,0-3L25.7,15.8z"/>
		<path class="st2" d="M15.6,25.8c-0.2-0.2-0.4-0.3-0.6-0.4v-5.5c0.2-0.1,0.4-0.2,0.6-0.4l3.7-3.7c0.8-0.8,0.8-2.1,0-3l-3.7-3.7
			c-0.8-0.8-2.1-0.8-3,0L9,12.8c-0.8,0.8-0.8,2.1,0,3l3.7,3.7c0.2,0.2,0.4,0.3,0.6,0.4v5.5c-0.2,0.1-0.4,0.2-0.6,0.4L9,29.5
			c-0.8,0.8-0.8,2.1,0,3l3.7,3.7c0.8,0.8,2.1,0.8,3,0l3.7-3.7c0.8-0.8,0.8-2.1,0-3L15.6,25.8z"/>
		<path class="st3" d="M24,34.1c-0.2-0.2-0.4-0.3-0.6-0.4v-5.5c0.2-0.1,0.4-0.2,0.6-0.4l3.7-3.7c0.8-0.8,0.8-2.1,0-3L24,17.4
			c-0.2-0.2-0.4-0.3-0.6-0.4v-5.5c0.2-0.1,0.4-0.2,0.6-0.4l3.7-3.7c0.8-0.8,0.8-2.1,0-3L24,0.7c-0.8-0.8-2.1-0.8-3,0l-3.7,3.7
			c-0.8,0.8-0.8,2.1,0,3l3.7,3.7c0.2,0.2,0.4,0.3,0.6,0.4V17c-0.2,0.1-0.4,0.2-0.6,0.4l-3.7,3.7c-0.8,0.8-0.8,2.1,0,3l3.7,3.7
			c0.2,0.2,0.4,0.3,0.6,0.4v5.5c-0.2,0.1-0.4,0.2-0.6,0.4l-3.7,3.7c-0.8,0.8-0.8,2.1,0,3l3.7,3.7c0.8,0.8,2.1,0.8,3,0l3.7-3.7
			c0.8-0.8,0.8-2.1,0-3L24,34.1z"/>
	</g>
	<g>
		<path d="M258,28.2h-17.5c0.5,3.2,2.6,4.9,5.7,4.9c2.2,0,4-1,4.9-2.7h6.6c-1.7,5.1-6.1,8.3-11.5,8.3c-6.8,0-12-5.3-12-12.2
			c0-7,5.1-12.2,12-12.2c7.1,0,12,5.5,12,12.2C258.1,27,258,27.6,258,28.2 M240.6,24h11.2c-0.9-2.8-2.9-4.4-5.7-4.4
			C243.3,19.6,241.3,21.2,240.6,24"/>
		<polygon points="68.5,38.1 61.1,27 61.1,38.1 54.8,38.1 54.8,6.5 61.1,6.5 61.1,25.2 68,14.9 75.2,14.9 67.4,25.9 76.1,38.1 		"/>
		<path d="M99,14.9V38h-5.5l0-2.1c-2,1.7-4.6,2.8-7.5,2.8c-7,0-12.2-5.3-12.2-12.3c0-7,5.2-12.2,12.2-12.2c3,0,5.6,1,7.6,2.8
			l0.1-2.2H99z M92.8,26.4c0-3.6-2.7-6.3-6.3-6.3c-3.6,0-6.3,2.7-6.3,6.3c0,3.6,2.7,6.4,6.3,6.4C90.1,32.8,92.8,30.1,92.8,26.4"/>
		<path d="M124.2,24v14h-6.3V25c0-3.5-1.3-5.2-4-5.2c-3.2,0-5.2,2.3-5.2,6v12.2h-6.3V14.9h5.5l0,2.9c1.8-2.1,4.5-3.4,7.7-3.4
			C120.9,14.4,124.2,18.2,124.2,24"/>
		<path d="M152.2,26.5c0,7-5.1,12.2-12.2,12.2c-2.8,0-5.3-1-7.3-2.6l-0.1,1.9h-5.3V6.5h6.3v9.6c1.8-1.2,4-1.9,6.4-1.9
			C147,14.2,152.2,19.5,152.2,26.5 M145.8,26.5c0-3.6-2.7-6.4-6.3-6.4c-3.6,0-6.3,2.7-6.3,6.4c0,3.6,2.7,6.3,6.3,6.3
			C143.1,32.8,145.8,30.1,145.8,26.5"/>
		<path d="M178.9,14.9V38h-5.6l0.1-2.1c-2,1.7-4.6,2.8-7.5,2.8c-7,0-12.2-5.3-12.2-12.3c0-7,5.2-12.2,12.2-12.2c3,0,5.6,1,7.6,2.8
			l-0.1-2.2H178.9z M172.8,26.4c0-3.6-2.7-6.3-6.3-6.3c-3.6,0-6.3,2.7-6.3,6.3c0,3.6,2.7,6.4,6.3,6.4
			C170.1,32.8,172.8,30.1,172.8,26.4"/>
		<path d="M204.2,24v14h-6.3V25c0-3.5-1.3-5.2-4-5.2c-3.2,0-5.2,2.3-5.2,6v12.2h-6.3V14.9l5.5,0l0,2.9c1.7-2.1,4.5-3.4,7.7-3.4
			C200.9,14.4,204.2,18.2,204.2,24"/>
		<rect x="207.3" y="14.9" width="6.3" height="23.2"/>
		<polygon points="234.1,32.3 234.1,38.1 214.9,38.1 214.9,37.4 224.8,20.6 215.9,20.6 215.9,14.9 234.1,14.9 234.1,15.8 
			224.3,32.3 		"/>
	</g>
</g>
</svg>
